<svg width="1728" height="446" viewBox="0 0 1728 446" fill="none" xmlns="http://www.w3.org/2000/svg">
<g opacity="1" clip-path="url(#clip0_322_2)">
<path opacity="0.2" d="M1724.98 173.422V179.243H1716.13V245.28H1700.24V161.981H1692.39V155.558H1689.37V149.737L1680.12 146.526V133.68L1660.6 140.103L1641.09 133.68V155.558H1637.87V161.981H1630.22V305.897H1571.68V289.438H1575.1V282.413H1571.68V279.001H1563.43V200.519H1566.04V194.698H1563.43V191.888H1556.59V128.26H1558.6V123.644H1556.59V121.235H1551.16V50.18H1553.37V45.7642H1551.16V44.9613H1546.53V40.9469H1540.09V38.9397H1517.76V40.9469H1511.52V44.9613H1503.27V45.7642H1501.26V50.18H1503.27V121.235H1498.04V123.644H1495.83V128.26H1498.04V191.888H1491.2V194.698H1488.59V200.519H1491.2V255.115H1485.57V249.294H1446.54V179.243H1439.5V173.422H1429.64V170.211H1395.84V173.422H1386.18V179.243H1376.32V92.9334L1376.53 92.7327H1376.32L1311.74 121.436L1311.94 296.664H1304.1V283.818L1274.93 294.657L1239.32 281.41V244.076H1240.72V240.262H1232.07V139.099H1235.9V135.486H1219V38.3375H1223.02V34.5239H1207.13L1183.79 0L1160.25 34.5239H1141.34V38.3375H1145.16V135.486H1128.26V139.099H1132.08V179.444L1079.17 199.114V218.785L1068.1 222.799V229.824L1071.32 228.62V311.919H1063.68L1064.48 161.981L1059.05 156.562L1059.25 118.425L1058.85 118.626L1059.05 118.425L994.671 128.662L994.47 128.461L993.665 311.919H990.648V179.243H983.405V173.422H930.09V179.243H921.037V245.28H905.344V161.981H897.498V155.558H894.279V149.737L885.024 146.526V133.68L865.71 140.103L864.302 139.701V139.5L863.899 139.701L863.698 139.5V139.701L862.29 140.103L842.976 133.68V146.526L833.721 149.737V155.558H830.502V161.981H822.656V245.28H806.963V179.243H797.91V173.422H744.595V179.243H737.352V311.919H734.335L733.53 128.461L733.329 128.662L668.949 118.425L669.15 118.626L668.747 118.425L668.949 156.562L663.517 161.981L664.321 311.919H656.676V228.62L659.895 229.824V222.799L648.83 218.785V199.114L595.918 179.444V139.099H599.74V135.486H582.84V38.3375H586.663V34.5239H567.751L544.212 0L520.875 34.5239H504.981V38.3375H509.005V135.486H492.105V139.099H495.927V240.262H487.276V244.076H488.685V281.41L453.074 294.657L423.902 283.818V296.664H416.056L416.257 121.436L351.676 92.7327H351.475L351.676 92.9334V179.243H341.818V173.422H332.161V170.211H298.361V173.422H288.503V179.243H281.461V249.294H242.431V255.115H236.798V200.519H239.413V194.698H236.798V191.888H229.957V128.26H232.17V123.644H229.957V121.235H224.727V50.18H226.738V45.7642H224.727V44.9613H216.478V40.9469H210.241V38.9397H187.909V40.9469H181.471V44.9613H176.844V45.7642H174.631V50.18H176.844V121.235H171.412V123.644H169.4V128.26H171.412V191.888H164.571V194.698H161.956V200.519H164.571V279.001H156.323V282.413H152.903V289.438H156.323V305.897H97.7772V161.981H90.132V155.558H86.913V133.68L67.3978 140.103L47.8826 133.68V146.526L38.628 149.737V155.558H35.6102V161.981H27.7639V245.28H11.8701V179.243H3.01781V173.422H0V446H863.698H864.302H1728V173.422H1724.98Z" fill="#2F2F2F" fill-opacity="0.84"/>
</g>
<defs>
<clipPath id="clip0_322_2">
<rect width="1728" height="446" fill="white"/>
</clipPath>
</defs>
</svg>
