<svg width="98" height="56" viewBox="0 0 98 56" fill="none" xmlns="http://www.w3.org/2000/svg">
<path d="M34.7323 43.0638C34.6878 43.0638 34.6434 43.1044 34.5989 43.145C34.4656 43.2262 34.3322 43.2667 34.1989 43.3479C33.4433 43.6726 32.5988 43.9161 31.7543 43.9973C27.6206 44.3626 23.9315 41.6026 23.487 37.828C23.3981 37.0568 23.487 36.2856 23.6648 35.5144C23.7092 35.3521 23.7537 35.2303 23.7981 35.068C23.7981 35.0274 23.8426 34.9868 23.8426 34.9462L34.7323 43.0638Z" fill="url(#paint0_linear_1_73)"/>
<path d="M48.4222 40.4662L44.2885 45.1338L47.711 40.1009L38.0214 34.6621L30.1541 30.2786L17.1754 23.0134C14.553 21.5116 12.1972 19.6852 10.1082 17.6152C5.66342 13.1099 2.41873 7.71171 0.729714 1.86705L0.196341 0L0.0185505 4.30232C-0.203688 9.86287 1.57422 15.3422 5.17449 19.8881L5.79676 20.6593C7.75246 23.0945 9.97485 25.3269 12.5528 27.2345L15.7531 29.6292C14.6419 30.6033 13.7085 31.6586 12.9529 32.8356C11.1749 35.555 10.286 38.7615 10.686 42.1709C11.0416 45.4179 12.5084 48.3808 14.6863 50.6538L11.7083 51.7496C18.1977 55.0778 24.3759 55.8084 27.8873 55.6867C31.6209 55.5243 35.5768 54.1443 37.9769 52.3179C39.1326 51.4249 40.5994 49.9232 41.3994 48.7461L49 54.4284L48.4222 40.4662ZM38.5548 46.0673C38.4214 46.1485 38.2881 46.1891 38.1547 46.2703C36.5991 47.1226 34.8656 47.6908 32.9988 47.8532C26.1094 48.5026 19.9312 43.8756 19.2644 37.5844C19.0866 35.8797 19.3089 34.2156 19.9312 32.6733C19.9756 32.5109 20.0201 32.3892 20.0645 32.2268C20.0645 32.1862 20.1089 32.1457 20.1089 32.1051L23.8426 34.9056L34.7323 43.0638L38.6437 45.9861C38.6437 46.0267 38.5992 46.0267 38.5548 46.0673Z" fill="url(#paint1_linear_1_73)"/>
<path d="M37.1769 33.1603L31.8876 30.2786L30.0653 29.3045C27.6651 28.0057 26.1983 25.5298 26.5539 22.9728C26.5539 22.9322 26.5539 22.8916 26.5539 22.851C29.5319 26.7069 47.9333 38.7209 49 39.4515L37.1769 33.1603Z" fill="url(#paint2_linear_1_73)"/>
<path d="M63.2233 43.0638C63.2677 43.0638 63.3122 43.1044 63.3566 43.145C63.49 43.2262 63.6233 43.2667 63.7567 43.3479C64.5123 43.6726 65.3568 43.9161 66.2013 43.9973C70.3349 44.3626 74.0241 41.6026 74.4686 37.828C74.5575 37.0568 74.4686 36.2856 74.2908 35.5144C74.2463 35.3521 74.2019 35.2303 74.1574 35.068C74.1574 35.0274 74.113 34.9868 74.113 34.9462L63.2233 43.0638Z" fill="url(#paint3_linear_1_73)"/>
<path d="M49 54.3472L56.6006 48.6649C57.4006 49.842 58.8674 51.3437 60.023 52.2367C62.4232 54.0631 66.3791 55.4431 70.1127 55.6055C73.6241 55.7678 79.8023 54.9967 86.2917 51.6684L83.3137 50.5726C85.4916 48.2591 86.9584 45.3367 87.314 42.0897C87.6696 38.7209 86.8251 35.4739 85.0471 32.7545C84.2915 31.5774 83.3581 30.5221 82.2469 29.548L85.4472 27.1533C88.0251 25.2457 90.292 23.0134 92.2032 20.5781L92.8255 19.8069C96.4258 15.3017 98.2037 9.82228 97.9815 4.22115L97.8037 0L97.2703 1.86705C95.5813 7.71171 92.3366 13.1099 87.8918 17.6152C85.8028 19.7257 83.4026 21.5116 80.8246 23.0134L67.8459 30.2786L59.9786 34.7027L50.289 40.1415L53.7115 45.1744L49.5778 40.5068L49 54.3472ZM59.3119 45.9861L63.2233 43.0638L74.113 34.9056L77.8466 32.1051C77.8466 32.1456 77.8911 32.1862 77.8911 32.2268C77.9799 32.3486 78.0244 32.5109 78.0244 32.6733C78.6467 34.2156 78.8689 35.8797 78.6911 37.5844C78.0244 43.8756 71.8462 48.5026 64.9568 47.8532C63.0899 47.6908 61.312 47.1226 59.8008 46.2702C59.6675 46.1891 59.5341 46.1485 59.4008 46.0673C59.4008 46.0267 59.3563 46.0267 59.3119 45.9861Z" fill="url(#paint4_linear_1_73)"/>
<path d="M60.8231 33.1603L66.1124 30.2786L67.9348 29.3045C70.3349 28.0057 71.8017 25.5298 71.4461 22.9728C71.4461 22.9322 71.4461 22.8916 71.4461 22.851C68.4681 26.7069 50.0667 38.7209 49 39.4515L60.8231 33.1603Z" fill="url(#paint5_linear_1_73)"/>
<path d="M47.7554 44.6467C47.5332 44.6467 47.8443 44.7297 47.2665 44.6467H47.7554Z" fill="#BCA86F"/>
<path d="M50.2445 44.6467C50.4668 44.6467 50.1556 44.7297 50.7334 44.6467H50.2445Z" fill="#BCA86F"/>
<defs>
<linearGradient id="paint0_linear_1_73" x1="23.9474" y1="48.6989" x2="29.2305" y2="37.2016" gradientUnits="userSpaceOnUse">
<stop stop-color="#0A7EE8"/>
<stop offset="1" stop-color="#06BFEA"/>
</linearGradient>
<linearGradient id="paint1_linear_1_73" x1="-0.00780703" y1="27.8117" x2="48.9854" y2="27.8117" gradientUnits="userSpaceOnUse">
<stop stop-color="#0A7EE8"/>
<stop offset="1" stop-color="#06BFEA"/>
</linearGradient>
<linearGradient id="paint2_linear_1_73" x1="26.4867" y1="31.1498" x2="48.9854" y2="31.1498" gradientUnits="userSpaceOnUse">
<stop stop-color="#0A7EE8"/>
<stop offset="1" stop-color="#06BFEA"/>
</linearGradient>
<linearGradient id="paint3_linear_1_73" x1="74.0235" y1="48.6989" x2="68.7404" y2="37.2016" gradientUnits="userSpaceOnUse">
<stop stop-color="#0A5AE8"/>
<stop offset="1" stop-color="#06BFEA"/>
</linearGradient>
<linearGradient id="paint4_linear_1_73" x1="48.9854" y1="27.8117" x2="97.9787" y2="27.8117" gradientUnits="userSpaceOnUse">
<stop stop-color="#0A7EE8"/>
<stop offset="1" stop-color="#06BFEA"/>
</linearGradient>
<linearGradient id="paint5_linear_1_73" x1="48.9854" y1="31.1498" x2="71.4842" y2="31.1498" gradientUnits="userSpaceOnUse">
<stop stop-color="#0A7EE8"/>
<stop offset="1" stop-color="#06BFEA"/>
</linearGradient>
</defs>
</svg>
