<?xml version="1.0" encoding="utf-8"?>
<!-- Generator: Adobe Illustrator 24.0.1, SVG Export Plug-In . SVG Version: 6.00 Build 0)  -->
<svg version="1.1" id="Layer_1" xmlns="http://www.w3.org/2000/svg" xmlns:xlink="http://www.w3.org/1999/xlink" x="0px" y="0px"
	 viewBox="0 0 279.7 207.1" enable-background="new 0 0 279.7 207.1" xml:space="preserve">
<g>
	<g>
		<linearGradient id="SVGID_1_" gradientUnits="userSpaceOnUse" x1="83.5358" y1="119.9836" x2="97.3116" y2="92.6076">
			<stop  offset="0" style="stop-color:#0A7EE8"/>
			<stop  offset="1" style="stop-color:#06BFEA"/>
		</linearGradient>
		<path fill="url(#SVGID_1_)" d="M107.8,106.1c-0.1,0-0.2,0.1-0.3,0.2c-0.3,0.2-0.6,0.3-0.9,0.5c-1.7,0.8-3.6,1.4-5.5,1.6
			c-9.3,0.9-17.6-5.9-18.6-15.2c-0.2-1.9,0-3.8,0.4-5.7c0.1-0.4,0.2-0.7,0.3-1.1c0-0.1,0.1-0.2,0.1-0.3L107.8,106.1z"/>
		<linearGradient id="SVGID_2_" gradientUnits="userSpaceOnUse" x1="29.6407" y1="68.5221" x2="139.8672" y2="68.5221">
			<stop  offset="0" style="stop-color:#0A7EE8"/>
			<stop  offset="1" style="stop-color:#06BFEA"/>
		</linearGradient>
		<path fill="url(#SVGID_2_)" d="M138.6,99.7l-9.3,11.5l7.7-12.4l-21.8-13.4L97.5,74.6L68.3,56.7c-5.9-3.7-11.2-8.2-15.9-13.3
			C42.4,32.3,35.1,19,31.3,4.6L30.1,0l-0.4,10.6c-0.5,13.7,3.5,27.2,11.6,38.4l1.4,1.9c4.4,6,9.4,11.5,15.2,16.2l7.2,5.9
			c-2.5,2.4-4.6,5-6.3,7.9c-4,6.7-6,14.6-5.1,23c0.8,8,4.1,15.3,9,20.9l-6.7,2.7c14.6,8.2,28.5,10,36.4,9.7
			c8.4-0.4,17.3-3.8,22.7-8.3c2.6-2.2,5.9-5.9,7.7-8.8l17.1,14L138.6,99.7z M116.4,113.5c-0.3,0.2-0.6,0.3-0.9,0.5
			c-3.5,2.1-7.4,3.5-11.6,3.9c-15.5,1.6-29.4-9.8-30.9-25.3c-0.4-4.2,0.1-8.3,1.5-12.1c0.1-0.4,0.2-0.7,0.3-1.1
			c0-0.1,0.1-0.2,0.1-0.3l8.4,6.9l24.5,20.1l8.8,7.2C116.6,113.4,116.5,113.4,116.4,113.5z"/>
		<path fill="none" d="M116.6,113.3c-0.1,0.1-0.2,0.1-0.3,0.2c-0.3,0.2-0.6,0.3-0.9,0.5c-3.5,2.1-7.4,3.5-11.6,3.9
			c-15.5,1.6-29.4-9.8-30.9-25.3c-0.4-4.2,0.1-8.3,1.5-12.1c0.1-0.4,0.2-0.7,0.3-1.1c0-0.1,0.1-0.2,0.1-0.3l8.4,6.9
			c0,0.1-0.1,0.2-0.1,0.3c-0.1,0.4-0.2,0.7-0.3,1.1c-0.5,1.8-0.6,3.7-0.4,5.7c0.9,9.3,9.3,16.1,18.6,15.2c2-0.2,3.9-0.7,5.5-1.6
			c0.3-0.1,0.6-0.3,0.9-0.5c0.1,0,0.2-0.1,0.3-0.2L116.6,113.3z"/>
		<linearGradient id="SVGID_3_" gradientUnits="userSpaceOnUse" x1="89.2488" y1="76.7464" x2="139.8672" y2="76.7464">
			<stop  offset="0" style="stop-color:#0A7EE8"/>
			<stop  offset="1" style="stop-color:#06BFEA"/>
		</linearGradient>
		<path fill="url(#SVGID_3_)" d="M113.3,81.7L113.3,81.7l-11.9-7.1h0l-4.1-2.4c-5.4-3.2-8.7-9.3-7.9-15.6c0-0.1,0-0.2,0-0.3
			c6.7,9.5,48.1,39.1,50.5,40.9L113.3,81.7z"/>
		
			<linearGradient id="SVGID_4_" gradientUnits="userSpaceOnUse" x1="-4023.9287" y1="119.9836" x2="-4010.1528" y2="92.6076" gradientTransform="matrix(-1 0 0 1 -3827.73 0)">
			<stop  offset="0" style="stop-color:#0A7EE8"/>
			<stop  offset="1" style="stop-color:#06BFEA"/>
		</linearGradient>
		<path fill="url(#SVGID_4_)" d="M171.9,106.1c0.1,0,0.2,0.1,0.3,0.2c0.3,0.2,0.6,0.3,0.9,0.5c1.7,0.8,3.6,1.4,5.5,1.6
			c9.3,0.9,17.6-5.9,18.6-15.2c0.2-1.9,0-3.8-0.4-5.7c-0.1-0.4-0.2-0.7-0.3-1.1c0-0.1-0.1-0.2-0.1-0.3L171.9,106.1z"/>
		<linearGradient id="SVGID_5_" gradientUnits="userSpaceOnUse" x1="139.8672" y1="68.5221" x2="250.0937" y2="68.5221">
			<stop  offset="0" style="stop-color:#0A7EE8"/>
			<stop  offset="1" style="stop-color:#06BFEA"/>
		</linearGradient>
		<path fill="url(#SVGID_5_)" d="M139.9,133.9l17.1-14c1.8,2.9,5.1,6.6,7.7,8.8c5.4,4.5,14.3,7.9,22.7,8.3
			c7.9,0.4,21.8-1.5,36.4-9.7l-6.7-2.7c4.9-5.7,8.2-12.9,9-20.9c0.8-8.3-1.1-16.3-5.1-23c-1.7-2.9-3.8-5.5-6.3-7.9l7.2-5.9
			c5.8-4.7,10.9-10.2,15.2-16.2l1.4-1.9c8.1-11.1,12.1-24.6,11.6-38.4L249.7,0l-1.2,4.6c-3.8,14.4-11.1,27.7-21.1,38.8
			c-4.7,5.2-10.1,9.6-15.9,13.3l-29.2,17.9l-17.7,10.9l-21.8,13.4l7.7,12.4l-9.3-11.5L139.9,133.9z M163.1,113.3l8.8-7.2L196.4,86
			l8.4-6.9c0,0.1,0.1,0.2,0.1,0.3c0.2,0.3,0.3,0.7,0.3,1.1c1.4,3.8,1.9,7.9,1.5,12.1c-1.5,15.5-15.4,26.9-30.9,25.3
			c-4.2-0.4-8.2-1.8-11.6-3.9c-0.3-0.2-0.6-0.3-0.9-0.5C163.3,113.4,163.2,113.4,163.1,113.3z"/>
		<path fill="none" d="M163.1,113.3c0.1,0.1,0.2,0.1,0.3,0.2c0.3,0.2,0.6,0.3,0.9,0.5c3.5,2.1,7.4,3.5,11.6,3.9
			c15.5,1.6,29.4-9.8,30.9-25.3c0.4-4.2-0.1-8.3-1.5-12.1c-0.1-0.4-0.2-0.7-0.3-1.1c0-0.1-0.1-0.2-0.1-0.3l-8.4,6.9
			c0,0.1,0.1,0.2,0.1,0.3c0.1,0.4,0.2,0.7,0.3,1.1c0.5,1.8,0.6,3.7,0.4,5.7c-0.9,9.3-9.3,16.1-18.6,15.2c-2-0.2-3.9-0.7-5.5-1.6
			c-0.3-0.1-0.6-0.3-0.9-0.5c-0.1,0-0.2-0.1-0.3-0.2L163.1,113.3z"/>
		<linearGradient id="SVGID_6_" gradientUnits="userSpaceOnUse" x1="139.8672" y1="76.7464" x2="190.4856" y2="76.7464">
			<stop  offset="0" style="stop-color:#0A7EE8"/>
			<stop  offset="1" style="stop-color:#06BFEA"/>
		</linearGradient>
		<path fill="url(#SVGID_6_)" d="M166.5,81.7L166.5,81.7l11.9-7.1h0l4.1-2.4c5.4-3.2,8.7-9.3,7.9-15.6c0-0.1,0-0.2,0-0.3
			c-6.7,9.5-48.1,39.1-50.5,40.9L166.5,81.7z"/>
		<path fill="#BCA86F" d="M137.1,110c-0.5,0,0.2,0.2-1.1,0"/>
		<path fill="#BCA86F" d="M142.7,110c0.5,0-0.2,0.2,1.1,0"/>
	</g>
	<g>
		<path fill="#FFFFFF" d="M21.1,207.1l-6.6-9.4c-0.4,0-0.8,0-1.2,0H6v9.4H0v-32.2h13.3c8.5,0,13.7,4.3,13.7,11.5
			c0,4.9-2.5,8.5-6.9,10.2l7.4,10.6H21.1z M13,180H6v12.8h7c5.3,0,8-2.4,8-6.4C21,182.3,18.2,180,13,180z"/>
		<path fill="#FFFFFF" d="M47.5,174.9h6v32.2h-6V174.9z"/>
		<path fill="#FFFFFF" d="M96.9,199.7H80.8l-3.2,7.5h-6.2l14.5-32.2h5.9l14.6,32.2h-6.3L96.9,199.7z M94.9,195l-6.1-14.1l-6,14.1
			H94.9z"/>
		<path fill="#FFFFFF" d="M152.9,174.9v32.2H148l-17.8-21.8v21.8h-5.9v-32.2h4.9l17.8,21.8v-21.8H152.9z"/>
		<path fill="#0A7EE8" d="M196.3,199.7h-16.1l-3.2,7.5h-6.2l14.5-32.2h5.9l14.6,32.2h-6.3L196.3,199.7z M194.3,195l-6.1-14.1
			l-6,14.1H194.3z"/>
		<path fill="#0A7EE8" d="M223.7,174.9h6v32.2h-6V174.9z"/>
		<path fill="#0A7EE8" d="M273.3,207.1l-6.6-9.4c-0.4,0-0.8,0-1.2,0h-7.3v9.4h-6v-32.2h13.3c8.5,0,13.7,4.3,13.7,11.5
			c0,4.9-2.5,8.5-6.9,10.2l7.4,10.6H273.3z M265.2,180h-7v12.8h7c5.3,0,8-2.4,8-6.4C273.2,182.3,270.4,180,265.2,180z"/>
	</g>
</g>
</svg>
