<svg width="226" height="38" viewBox="0 0 226 38" fill="none" xmlns="http://www.w3.org/2000/svg">
<path d="M23.6957 29.3797C23.6654 29.3797 23.6351 29.4074 23.6048 29.4351C23.5138 29.4904 23.4228 29.5181 23.3319 29.5735C22.8163 29.795 22.2402 29.9612 21.664 30.0166C18.8439 30.2658 16.327 28.3828 16.0238 25.8076C15.9631 25.2815 16.0238 24.7553 16.1451 24.2292C16.1754 24.1185 16.2057 24.0354 16.2361 23.9246C16.2361 23.8969 16.2664 23.8692 16.2664 23.8416L23.6957 29.3797Z" fill="url(#paint0_linear_419_38116)"/>
<path d="M33.0354 27.6075L30.2153 30.7919L32.5502 27.3583L25.9396 23.6478L20.5723 20.6572L11.7177 15.7006C9.92858 14.676 8.32141 13.4299 6.89618 12.0177C3.86379 8.94406 1.65015 5.26121 0.497838 1.27377L0.133951 0L0.0126558 2.9352C-0.138964 6.72881 1.07399 10.467 3.53023 13.5684L3.95476 14.0945C5.28902 15.7559 6.80521 17.2789 8.564 18.5804L10.7473 20.2141C9.98922 20.8787 9.35242 21.5987 8.83691 22.4017C7.62396 24.257 7.01748 26.4445 7.29039 28.7705C7.53299 30.9858 8.53368 33.0072 10.0195 34.5579L7.98784 35.3055C12.4151 37.5761 16.6302 38.0746 19.0257 37.9915C21.573 37.8807 24.2718 36.9392 25.9093 35.6932C26.6977 35.084 27.6984 34.0594 28.2442 33.2564L33.4296 37.1331L33.0354 27.6075ZM26.3035 31.4288C26.2125 31.4842 26.1215 31.5119 26.0306 31.5673C24.9692 32.1488 23.7866 32.5364 22.513 32.6472C17.8128 33.0903 13.5978 29.9335 13.1429 25.6415C13.0216 24.4785 13.1732 23.3432 13.5978 22.2909C13.6281 22.1802 13.6584 22.0971 13.6887 21.9863C13.6887 21.9586 13.7191 21.9309 13.7191 21.9033L16.2663 23.8139L23.6956 29.3797L26.3641 31.3734C26.3641 31.4011 26.3338 31.4011 26.3035 31.4288Z" fill="url(#paint1_linear_419_38116)"/>
<path d="M25.3631 22.6233L21.7545 20.6572L20.5113 19.9926C18.8738 19.1065 17.8731 17.4174 18.1157 15.6729C18.1157 15.6452 18.1157 15.6175 18.1157 15.5898C20.1474 18.2204 32.7015 26.4169 33.4292 26.9153L25.3631 22.6233Z" fill="url(#paint2_linear_419_38116)"/>
<path d="M43.1328 29.3797C43.1631 29.3797 43.1935 29.4074 43.2238 29.4351C43.3148 29.4904 43.4057 29.5181 43.4967 29.5735C44.0122 29.795 44.5884 29.9612 45.1645 30.0166C47.9846 30.2658 50.5015 28.3828 50.8048 25.8076C50.8654 25.2815 50.8048 24.7553 50.6835 24.2292C50.6531 24.1185 50.6228 24.0354 50.5925 23.9246C50.5925 23.8969 50.5622 23.8692 50.5622 23.8416L43.1328 29.3797Z" fill="url(#paint3_linear_419_38116)"/>
<path d="M33.4297 37.0777L38.6151 33.201C39.1609 34.004 40.1616 35.0286 40.95 35.6378C42.5875 36.8839 45.2863 37.8253 47.8335 37.9361C50.2291 38.0469 54.4442 37.5207 58.8715 35.2501L56.8398 34.5025C58.3256 32.9241 59.3263 30.9304 59.5689 28.7151C59.8115 26.4168 59.2353 24.2016 58.0224 22.3463C57.5069 21.5433 56.8701 20.8233 56.112 20.1587L58.2953 18.525C60.0541 17.2235 61.6006 15.7006 62.9045 14.0391L63.3291 13.513C65.7853 10.4394 66.9983 6.70112 66.8466 2.87982L66.7253 0L66.3615 1.27377C65.2091 5.26121 62.9955 8.94406 59.9631 12.0177C58.5379 13.4576 56.9004 14.676 55.1416 15.7006L46.287 20.6572L40.9197 23.6755L34.3091 27.386L36.644 30.8196L33.8239 27.6352L33.4297 37.0777ZM40.4648 31.3734L43.1333 29.3797L50.5627 23.8139L53.1099 21.9033C53.1099 21.9309 53.1402 21.9586 53.1402 21.9863C53.2009 22.0694 53.2312 22.1802 53.2312 22.2909C53.6557 23.3432 53.8074 24.4785 53.6861 25.6415C53.2312 29.9335 49.0162 33.0903 44.316 32.6472C43.0424 32.5364 41.8294 32.1488 40.7984 31.5673C40.7074 31.5119 40.6165 31.4842 40.5255 31.4288C40.5255 31.4011 40.4952 31.4011 40.4648 31.3734Z" fill="url(#paint4_linear_419_38116)"/>
<path d="M41.4958 22.6233L45.1044 20.6572L46.3477 19.9926C47.9852 19.1065 48.9859 17.4174 48.7433 15.6729C48.7433 15.6452 48.7433 15.6175 48.7433 15.5898C46.7116 18.2204 34.1575 26.4169 33.4297 26.9153L41.4958 22.6233Z" fill="url(#paint5_linear_419_38116)"/>
<path d="M32.5811 30.4596C32.4293 30.4596 32.6418 30.5162 32.2471 30.4596Z" fill="#BCA86F"/>
<path d="M34.2788 30.4596C34.4306 30.4596 34.2181 30.5162 34.6128 30.4596Z" fill="#BCA86F"/>
<path d="M100.388 10.5087V32.4421H96.1527L86.2063 19.87V32.4421H81V10.5087H85.235L95.1426 23.0807V10.5087H100.388Z" fill="#0A7EE8"/>
<path d="M114.297 10.47C117.405 10.47 119.931 11.4757 121.834 13.526C123.738 15.5762 124.71 18.2066 124.71 21.456C124.71 24.6667 123.738 27.2972 121.834 29.3474C119.931 31.3976 117.405 32.4034 114.258 32.4034H104.156V10.5087L114.297 10.47ZM114.18 27.7614C115.696 27.7614 116.939 27.1812 117.949 25.982C118.959 24.8215 119.464 23.2741 119.464 21.3787C119.464 19.4832 118.959 18.0132 117.988 16.8527C116.978 15.7309 115.734 15.1507 114.219 15.1507H109.324V27.7227L114.18 27.7614Z" fill="#06BFEA"/>
<path d="M132.868 15.228V19.5606H142.426V24.2026H132.868V32.4034H127.662V10.5087H144.058V15.2667H132.868V15.228Z" fill="#EEEEEE"/>
<path d="M161.814 16.4659V32.4422H156.763V30.7788C155.559 32.1714 153.966 32.8677 152.023 32.9063C149.964 32.9063 148.371 32.2487 147.322 31.0109C146.273 29.773 145.768 27.9936 145.768 25.8273V16.5433H150.78V24.8215C150.78 27.1425 151.751 28.303 153.655 28.303C154.626 28.303 155.364 27.9549 155.947 27.2199C156.491 26.4849 156.763 25.5178 156.763 24.28V16.4659H161.814Z" fill="#EEEEEE"/>
<path d="M172.149 32.9062C170.168 32.9062 168.458 32.4033 166.982 31.4362C165.505 30.4692 164.573 29.3087 164.146 27.9161L168.614 26.6008C168.886 27.2971 169.352 27.8387 170.012 28.3029C170.673 28.7284 171.45 28.9605 172.344 28.9605C172.926 28.9605 173.431 28.8445 173.82 28.6124C174.208 28.3803 174.364 28.1095 174.364 27.8C174.364 27.2971 173.859 26.8716 172.849 26.5621L169.002 25.4403C166.282 24.628 164.961 23.158 164.961 20.9917C164.961 19.5991 165.622 18.4386 166.943 17.4716C168.264 16.5045 169.818 16.0403 171.644 16.0403C173.354 16.0403 174.869 16.3884 176.19 17.1234C177.511 17.8584 178.405 18.8642 178.91 20.102L174.48 21.3399C173.742 20.3341 172.771 19.8312 171.566 19.8312C171.1 19.8312 170.712 19.9086 170.362 20.102C170.012 20.2954 169.857 20.5275 169.857 20.7983C169.857 21.2238 170.168 21.5333 170.789 21.7654L174.48 22.8099C175.219 23.0033 175.84 23.2354 176.307 23.4288C176.812 23.6609 177.278 23.9317 177.783 24.2798C178.288 24.628 178.638 25.0922 178.871 25.6337C179.104 26.1753 179.221 26.8329 179.221 27.5679C179.221 29.1152 178.56 30.3918 177.239 31.3589C175.918 32.3646 174.17 32.8675 172.072 32.8675L172.149 32.9062Z" fill="#EEEEEE"/>
<path d="M184.544 14.6091C183.728 14.6091 183.067 14.3383 182.485 13.7967C181.902 13.2552 181.63 12.5589 181.63 11.7852C181.63 11.0115 181.941 10.3539 182.485 9.81235C183.067 9.27078 183.728 9 184.544 9C185.36 9 186.02 9.27078 186.603 9.81235C187.186 10.3539 187.458 11.0115 187.458 11.7852C187.458 12.5975 187.186 13.2552 186.603 13.7967C186.02 14.3383 185.36 14.6091 184.544 14.6091ZM181.941 16.4272H186.953V32.4034H181.941V16.4272Z" fill="#EEEEEE"/>
<path d="M198.493 32.9062C196.006 32.9062 193.947 32.0939 192.315 30.5079C190.683 28.9219 189.867 26.9103 189.867 24.512C189.867 22.1136 190.683 20.1021 192.315 18.516C193.947 16.93 196.006 16.1177 198.493 16.1177C200.979 16.1177 203.038 16.93 204.67 18.516C206.302 20.1407 207.118 22.1136 207.118 24.512C207.118 26.9103 206.302 28.9219 204.67 30.5079C203.038 32.0552 200.979 32.8675 198.493 32.9062ZM198.493 28.3803C199.619 28.3803 200.552 28.0321 201.212 27.2972C201.873 26.5622 202.222 25.5951 202.222 24.4733C202.222 23.3128 201.873 22.3844 201.212 21.6494C200.552 20.9144 199.619 20.5663 198.493 20.5663C197.366 20.5663 196.433 20.9144 195.773 21.6494C195.112 22.3844 194.763 23.3128 194.763 24.4733C194.763 25.6338 195.112 26.5622 195.773 27.2972C196.433 28.0321 197.366 28.3803 198.493 28.3803Z" fill="#EEEEEE"/>
<path d="M219.744 16.0403C221.803 16.0403 223.396 16.6979 224.445 17.9358C225.494 19.1736 225.999 20.9531 225.999 23.1193V32.4033H220.987V24.1251C220.987 21.8041 220.016 20.6436 218.112 20.6436C217.141 20.6436 216.403 20.9917 215.82 21.688C215.237 22.3843 215.004 23.3514 215.004 24.5893V32.4033H209.953V16.4658H215.004V18.1292C216.208 16.7366 217.801 16.0016 219.744 16.0403Z" fill="#EEEEEE"/>
<defs>
<linearGradient id="paint0_linear_419_38116" x1="16.3379" y1="33.2241" x2="19.9422" y2="25.3802" gradientUnits="userSpaceOnUse">
<stop stop-color="#0A7EE8"/>
<stop offset="1" stop-color="#06BFEA"/>
</linearGradient>
<linearGradient id="paint1_linear_419_38116" x1="-0.00532624" y1="18.9742" x2="33.4197" y2="18.9742" gradientUnits="userSpaceOnUse">
<stop stop-color="#0A7EE8"/>
<stop offset="1" stop-color="#06BFEA"/>
</linearGradient>
<linearGradient id="paint2_linear_419_38116" x1="18.0698" y1="21.2516" x2="33.4193" y2="21.2516" gradientUnits="userSpaceOnUse">
<stop stop-color="#0A7EE8"/>
<stop offset="1" stop-color="#06BFEA"/>
</linearGradient>
<linearGradient id="paint3_linear_419_38116" x1="50.5011" y1="33.2241" x2="46.8968" y2="25.3802" gradientUnits="userSpaceOnUse">
<stop stop-color="#0A5AE8"/>
<stop offset="1" stop-color="#06BFEA"/>
</linearGradient>
<linearGradient id="paint4_linear_419_38116" x1="33.4197" y1="18.9742" x2="66.8447" y2="18.9742" gradientUnits="userSpaceOnUse">
<stop stop-color="#0A7EE8"/>
<stop offset="1" stop-color="#06BFEA"/>
</linearGradient>
<linearGradient id="paint5_linear_419_38116" x1="33.4197" y1="21.2516" x2="48.7692" y2="21.2516" gradientUnits="userSpaceOnUse">
<stop stop-color="#0A7EE8"/>
<stop offset="1" stop-color="#06BFEA"/>
</linearGradient>
</defs>
</svg>
