<svg width="197" height="29" viewBox="0 0 197 29" fill="none" xmlns="http://www.w3.org/2000/svg">
<path d="M24.3121 0.0132058C24.299 0.0132058 24.2858 0.0132058 24.2858 0.0132058H24.1546C24.0628 0 23.9841 0 23.8922 0H23.8791C23.7873 0 23.7086 0 23.6167 0.0132058H16.7944C15.3905 0.0132058 14.2622 1.14891 14.2622 2.56193V10.3534V10.393V10.8156V11.6872V18.5938C14.2622 19.9936 15.3905 21.1425 16.7944 21.1425C18.1982 21.1425 19.3265 20.0068 19.3265 18.5938V11.6872V10.8156V10.393V10.3534V5.11066H21.3339H24.299C25.7028 5.11066 26.8311 3.97496 26.8311 2.56193C26.8442 1.14891 25.7028 0.0132058 24.3121 0.0132058Z" fill="#41BEA6"/>
<path d="M18.6843 16.8904L10.7598 7.97642L4.42292 0.845273C2.9666 -0.884691 -0.0772217 0.277422 0.00149797 2.54883V26.4118C0.00149797 27.8248 1.12981 28.9605 2.53365 28.9605C3.93748 28.9605 5.06579 27.8248 5.06579 26.4118V9.21777L12.3605 17.4318V17.4186L14.9058 20.2843C15.3649 20.7993 16.0341 21.1294 16.795 21.1294C18.1989 21.1294 19.3272 19.9937 19.3272 18.5807C19.3272 17.9336 19.091 17.3394 18.6843 16.8904Z" fill="#5C3EED"/>
<path d="M16.808 29C18.2065 29 19.3402 27.8589 19.3402 26.4513C19.3402 25.0437 18.2065 23.9026 16.808 23.9026C15.4096 23.9026 14.2759 25.0437 14.2759 26.4513C14.2759 27.8589 15.4096 29 16.808 29Z" fill="#41BEA6"/>
<path d="M31.1742 6.9727C32.5727 6.9727 33.7064 5.83159 33.7064 4.42397C33.7064 3.01635 32.5727 1.87524 31.1742 1.87524C29.7758 1.87524 28.6421 3.01635 28.6421 4.42397C28.6421 5.83159 29.7758 6.9727 31.1742 6.9727Z" fill="#5C3EED"/>
<path d="M35.8193 12.2946C37.2177 12.2946 38.3514 11.1535 38.3514 9.74587C38.3514 8.33825 37.2177 7.19714 35.8193 7.19714C34.4208 7.19714 33.2871 8.33825 33.2871 9.74587C33.2871 11.1535 34.4208 12.2946 35.8193 12.2946Z" fill="#41BEA6"/>
<path d="M38.128 8.70264L33.536 10.8552C34.0215 11.9777 34.297 13.2058 34.297 14.4868C34.297 19.122 30.8202 22.9914 26.2676 23.7441C25.7428 23.8365 25.1918 23.8761 24.6407 23.8761H23.9847C23.9847 23.8761 23.9847 23.8761 23.9716 23.8761C22.5678 23.8761 21.4395 25.0118 21.4395 26.4249C21.4395 27.8379 22.5678 28.9736 23.9716 28.9736H24.6276C32.7488 28.9736 39.3482 22.4763 39.3482 14.4868C39.3482 12.4399 38.9152 10.4722 38.128 8.70264Z" fill="#41BEA6"/>
<path d="M56.2592 0.818822C56.0099 0.620734 55.7475 0.488676 55.4458 0.409441C55.1572 0.330206 54.5799 0.290588 53.6877 0.290588H52.0215V8.37256H53.1629V4.80698H53.4909C54.37 4.80698 55.0128 4.76737 55.4458 4.67493C55.905 4.58248 56.2855 4.34478 56.5872 3.97502C56.889 3.60525 57.0464 3.12984 57.0464 2.54879C57.0464 2.19223 56.9808 1.86208 56.8365 1.57155C56.7053 1.26782 56.5085 1.01691 56.2592 0.818822ZM55.8787 2.53558C55.8787 2.85252 55.7738 3.11664 55.5639 3.34114C55.3539 3.56564 54.8948 3.67128 54.2125 3.65808H53.1629V1.4395H54.2781C55.7082 1.4395 55.8787 2.07338 55.8787 2.53558Z" fill="#EEEEEE"/>
<path d="M60.7987 2.15253C59.9459 2.15253 59.2243 2.46947 58.6339 3.10335C58.0435 3.72402 57.7549 4.48996 57.7549 5.37475C57.7549 6.24634 58.0566 6.99907 58.6339 7.61974C59.2243 8.24042 59.9459 8.57056 60.8118 8.57056C61.6777 8.57056 62.3993 8.25362 62.9766 7.61974C63.5539 6.99907 63.8557 6.23313 63.8557 5.36154C63.8557 4.48996 63.5539 3.72402 62.9766 3.10335C62.3731 2.46947 61.6515 2.15253 60.7987 2.15253ZM60.7987 3.26182C61.3235 3.26182 61.7696 3.47311 62.1632 3.88249C62.5568 4.30508 62.7405 4.79369 62.7405 5.37475C62.7405 5.96901 62.5568 6.44442 62.1763 6.8538C61.7958 7.26318 61.3497 7.46127 60.7987 7.46127C60.2477 7.46127 59.8016 7.26318 59.4342 6.86701C59.0538 6.45763 58.8832 5.96901 58.8832 5.38796C58.8832 4.79369 59.0669 4.30508 59.4605 3.88249C59.8278 3.47311 60.2739 3.26182 60.7987 3.26182Z" fill="#EEEEEE"/>
<path d="M70.2583 6.27281L68.6446 2.29785H68.251L66.6241 6.27281L65.0891 2.29785H63.9214L66.4273 8.57062H66.8209L68.4478 4.63528L70.0615 8.57062H70.4551L73.0004 2.29785H71.8327L70.2583 6.27281Z" fill="#EEEEEE"/>
<path d="M79.1143 5.41437C79.088 4.42393 78.7863 3.61837 78.2221 3.03732C77.6448 2.45626 76.9232 2.15253 76.0836 2.15253C75.2308 2.15253 74.5092 2.46947 73.945 3.10335C73.3677 3.72402 73.0791 4.48996 73.0791 5.36154C73.0791 6.23313 73.3677 6.99907 73.9319 7.61974C74.5092 8.25362 75.2439 8.57056 76.1229 8.57056C77.3562 8.57056 78.2877 7.96309 78.9175 6.74816L79.0093 6.57648L78.0647 6.07466L77.9728 6.25954C77.5399 7.10471 76.9232 7.5141 76.0704 7.5141C75.5588 7.5141 75.1389 7.32921 74.7716 6.94624C74.4567 6.60289 74.2599 6.1671 74.2205 5.62566H79.1143V5.41437ZM74.3255 4.5824C74.6404 3.6844 75.2177 3.24861 76.0836 3.24861C76.5428 3.24861 76.9364 3.38067 77.2906 3.6712C77.5792 3.9089 77.776 4.21264 77.8941 4.59561H74.3255V4.5824Z" fill="#EEEEEE"/>
<path d="M81.8561 2.15253C81.5806 2.15253 81.3444 2.24497 81.1214 2.42985C81.0427 2.49588 80.9639 2.57511 80.8852 2.68076V2.29779H79.77V8.37248H80.8852V6.24634C80.8852 5.32193 80.9246 4.67484 81.0164 4.33149C81.0951 4.00134 81.2263 3.73723 81.3969 3.52593C81.6199 3.26182 81.843 3.18258 82.066 3.32785L82.2366 3.43349L82.8138 2.46947L82.6433 2.36382C82.3678 2.21856 82.1054 2.15253 81.8561 2.15253Z" fill="#EEEEEE"/>
<path d="M88.9151 5.41437C88.8888 4.42393 88.5871 3.61837 88.0229 3.03732C87.4456 2.45626 86.724 2.15253 85.8843 2.15253C85.0315 2.15253 84.31 2.46947 83.7458 3.10335C83.1685 3.72402 82.8799 4.48996 82.8799 5.36154C82.8799 6.23313 83.1685 6.99907 83.7327 7.61974C84.31 8.25362 85.0447 8.57056 85.9237 8.57056C87.157 8.57056 88.0885 7.96309 88.7183 6.74816L88.8101 6.57648L87.8655 6.07466L87.7736 6.25954C87.3407 7.10471 86.724 7.5141 85.8712 7.5141C85.3595 7.5141 84.9397 7.32921 84.5724 6.94624C84.2575 6.60289 84.0607 6.1671 84.0213 5.62566H88.9413L88.9151 5.41437ZM84.1394 4.5824C84.4543 3.6844 85.0316 3.24861 85.8975 3.24861C86.3567 3.24861 86.7503 3.38067 87.1045 3.6712C87.3931 3.9089 87.5899 4.21264 87.708 4.59561H84.1394V4.5824Z" fill="#EEEEEE"/>
<path d="M94.609 2.98452C94.0711 2.42988 93.4019 2.15256 92.6279 2.15256C91.8013 2.15256 91.0797 2.4695 90.4893 3.09017C89.8989 3.71084 89.5972 4.47678 89.5972 5.34837C89.5972 6.21995 89.8989 6.98589 90.4762 7.60657C91.0666 8.24045 91.8013 8.55739 92.6541 8.55739C93.3757 8.55739 94.0317 8.26686 94.609 7.69901V8.3593H95.6979V0.105652H94.609V2.98452ZM94.0842 3.85611C94.4647 4.26549 94.6483 4.76731 94.6483 5.37478C94.6483 5.99545 94.4515 6.49728 94.0448 6.89345C93.6381 7.30283 93.1789 7.48771 92.6541 7.48771C92.1293 7.48771 91.6832 7.27642 91.2896 6.85383C90.896 6.41804 90.6992 5.92942 90.6992 5.36157C90.6992 4.78052 90.8829 4.2919 91.2765 3.86931C91.657 3.44673 92.1162 3.24864 92.6804 3.24864C93.2445 3.24864 93.7037 3.44673 94.0842 3.85611Z" fill="#EEEEEE"/>
<path d="M102.612 2.15256C101.851 2.15256 101.182 2.42988 100.618 2.97132V0.105652H99.5288V8.37251H100.618V7.6858C101.169 8.28006 101.838 8.57059 102.599 8.57059C103.425 8.57059 104.147 8.25365 104.737 7.61977C105.328 6.9991 105.63 6.23316 105.63 5.34837C105.63 4.47678 105.341 3.71084 104.751 3.09017C104.16 2.4695 103.439 2.15256 102.612 2.15256ZM102.546 3.20902C103.111 3.20902 103.57 3.42032 103.95 3.8429C104.331 4.2787 104.514 4.76731 104.514 5.34837C104.514 5.92943 104.318 6.41804 103.937 6.84063C103.544 7.26321 103.097 7.47451 102.546 7.47451C101.995 7.47451 101.536 7.27642 101.156 6.85383C100.762 6.43125 100.578 5.92943 100.578 5.30875C100.578 4.70128 100.762 4.21267 101.143 3.80329C101.523 3.40711 101.982 3.20902 102.546 3.20902Z" fill="#EEEEEE"/>
<path d="M110.431 2.29785L108.739 6.36525L106.981 2.29785H105.813L108.148 7.75186L107.007 10.4459H108.188L111.612 2.29785H110.431Z" fill="#EEEEEE"/>
<path d="M59.7492 16.2697C59.0407 15.8075 58.2404 15.5698 57.3613 15.5698C55.8919 15.5698 54.593 16.1772 53.4778 17.3525V15.8735H51.3262V28.287H53.4778V23.6385C53.4778 22.0802 53.5434 21.0238 53.6746 20.5087C53.8058 20.0069 54.042 19.5315 54.37 19.0825C54.7111 18.6335 55.1178 18.2902 55.577 18.0393C56.0362 17.7883 56.5217 17.6695 57.0071 17.6695C57.4925 17.6695 57.9124 17.7487 58.2404 17.894C58.5684 18.0393 58.8439 18.2638 59.0538 18.5675C59.2769 18.8712 59.4343 19.2674 59.5524 19.7164C59.6705 20.1786 59.7229 21.0634 59.7229 22.3708V28.3002H61.8615V21.9218C61.8615 20.271 61.6778 19.0165 61.3367 18.2109C60.9956 17.3922 60.4576 16.7451 59.7492 16.2697Z" fill="#EEEEEE"/>
<path d="M71.2818 15.5698C69.5499 15.5698 68.0543 16.2168 66.8604 17.511C65.6664 18.792 65.0498 20.3503 65.0498 22.1463C65.0498 23.9423 65.6533 25.5005 66.8472 26.7683C68.0412 28.0493 69.5368 28.6964 71.2818 28.6964C73.0267 28.6964 74.5224 28.0493 75.7032 26.7683C76.884 25.5005 77.4875 23.9423 77.4875 22.1463C77.4875 20.3503 76.884 18.792 75.677 17.511C74.483 16.2168 73.0005 15.5698 71.2818 15.5698ZM71.2818 26.557C70.1272 26.557 69.1563 26.1344 68.3823 25.3025C67.6082 24.4573 67.2277 23.4272 67.2277 22.2123C67.2277 21.0106 67.6344 19.9541 68.4347 19.0693C69.2219 18.1977 70.1797 17.7487 71.2818 17.7487C72.3707 17.7487 73.3285 18.1845 74.1288 19.0693C74.9291 19.9409 75.3358 20.9974 75.3358 22.1991C75.3358 23.4008 74.9291 24.4309 74.1419 25.2893C73.3678 26.1212 72.397 26.557 71.2818 26.557Z" fill="#EEEEEE"/>
<path d="M94.1763 15.5698C93.3367 15.5698 92.5232 15.8075 91.7754 16.2565C91.1325 16.6527 90.5684 17.2073 90.1092 17.9072C89.8074 17.2205 89.3613 16.6791 88.7709 16.2697C88.0756 15.8075 87.3015 15.5566 86.4618 15.5566C85.0842 15.5566 83.9034 16.1112 82.9457 17.2073V15.8735H80.8071V28.287H82.9457V22.9783C82.9457 21.4992 83.0769 20.4295 83.3393 19.7957C83.5886 19.175 83.9953 18.6732 84.5201 18.2902C85.0449 17.9072 85.5959 17.7223 86.1863 17.7223C86.7636 17.7223 87.2359 17.8808 87.6164 18.1845C87.9969 18.5015 88.233 18.8844 88.3511 19.3731C88.4692 19.8881 88.5217 20.7465 88.5217 21.935V28.287H90.634V23.348C90.634 21.8954 90.752 20.7729 90.962 20.0466C91.1719 19.3334 91.5655 18.7656 92.1034 18.3562C92.6413 17.9468 93.2317 17.7355 93.8483 17.7355C94.4519 17.7355 94.9504 17.894 95.3178 18.1845C95.6851 18.4883 95.9213 18.858 96.0394 19.307C96.1575 19.7692 96.2099 20.5352 96.2099 21.552V28.3002H98.3879V21.552C98.3879 19.241 97.9811 17.7091 97.1677 16.8508C96.328 15.9924 95.3309 15.5698 94.1763 15.5698Z" fill="#EEEEEE"/>
<path d="M111.849 17.379C110.734 16.1772 109.369 15.5698 107.782 15.5698C106.037 15.5698 104.541 16.2168 103.334 17.4978C102.127 18.7788 101.51 20.3239 101.51 22.1066C101.51 23.8894 102.114 25.4477 103.321 26.7419C104.528 28.0361 105.997 28.6964 107.69 28.6964C109.238 28.6964 110.629 28.0757 111.849 26.8343V28.3002H113.961V15.8867H111.849V17.379ZM110.734 19.0033C111.534 19.8485 111.927 20.9181 111.927 22.1727C111.927 23.4272 111.521 24.4969 110.707 25.3289C109.894 26.1608 108.923 26.5966 107.808 26.5966C106.68 26.5966 105.696 26.1476 104.895 25.276C104.082 24.4045 103.675 23.348 103.675 22.1595C103.675 20.9709 104.082 19.9145 104.882 19.0429C105.669 18.1713 106.653 17.7223 107.808 17.7223C108.962 17.7355 109.946 18.1581 110.734 19.0033Z" fill="#EEEEEE"/>
<path d="M127.685 17.3789C126.57 16.1772 125.205 15.5697 123.618 15.5697C121.873 15.5697 120.377 16.2168 119.17 17.4978C117.963 18.7787 117.346 20.3238 117.346 22.1198C117.346 23.9158 117.95 25.4741 119.144 26.7551C120.338 28.036 121.807 28.6963 123.513 28.6963C125.061 28.6963 126.465 28.0756 127.685 26.8343V28.3001H129.797V11.3571H127.685V17.3789ZM123.657 26.5966C122.529 26.5966 121.545 26.1476 120.744 25.276C119.931 24.3912 119.524 23.348 119.524 22.1594C119.524 20.9709 119.931 19.9276 120.718 19.0561C121.505 18.1845 122.502 17.7487 123.67 17.7487C124.851 17.7487 125.835 18.1713 126.609 19.0164C127.383 19.8616 127.777 20.9445 127.777 22.2123C127.777 23.48 127.357 24.5497 126.517 25.3684C125.677 26.174 124.72 26.5966 123.657 26.5966Z" fill="#EEEEEE"/>
<path d="M135.635 15.8735H133.483V28.287H135.635V15.8735Z" fill="#EEEEEE"/>
<path d="M134.559 11.3571C134.14 11.3571 133.772 11.5155 133.47 11.8325C133.169 12.1494 133.024 12.5192 133.024 12.955C133.024 13.3775 133.169 13.7605 133.47 14.0775C133.772 14.3944 134.14 14.5529 134.573 14.5529C135.006 14.5529 135.373 14.3944 135.675 14.0907C135.976 13.7869 136.121 13.404 136.121 12.955C136.121 12.5192 135.963 12.1362 135.675 11.8193C135.36 11.5155 134.992 11.3571 134.559 11.3571Z" fill="#EEEEEE"/>
<path d="M149.254 24.5497C148.191 25.9099 146.866 26.5966 145.331 26.5966C144.045 26.5966 142.969 26.1476 142.143 25.2628C141.303 24.3781 140.883 23.3084 140.883 22.067C140.883 20.8389 141.316 19.7824 142.169 18.9505C143.022 18.1185 144.084 17.6959 145.344 17.6959C146.944 17.6959 148.256 18.3694 149.24 19.7164L149.345 19.8617L151.038 18.7524L150.946 18.5939C150.395 17.6431 149.608 16.8903 148.624 16.3621C147.64 15.8339 146.551 15.5698 145.396 15.5698C143.441 15.5698 141.815 16.2301 140.581 17.511C139.348 18.8052 138.718 20.3767 138.718 22.1859C138.718 23.9951 139.348 25.5534 140.568 26.8079C141.801 28.0625 143.35 28.6964 145.186 28.6964C146.354 28.6964 147.469 28.4455 148.466 27.9436C149.477 27.4418 150.303 26.7155 150.933 25.7515L151.038 25.593L149.372 24.4045L149.254 24.5497Z" fill="#EEEEEE"/>
<path d="M165.719 13.9322C164.958 13.1927 164.039 12.6248 163.003 12.2815C161.966 11.9249 160.3 11.7532 158.057 11.7532H154.541V28.2869H159.749C161.861 28.2869 163.488 27.9304 164.604 27.2305C165.719 26.5306 166.585 25.5401 167.188 24.2988C167.792 23.0574 168.093 21.7368 168.093 20.337C168.093 18.9504 167.884 17.7091 167.49 16.6526C167.07 15.5961 166.48 14.6849 165.719 13.9322ZM156.692 13.9982H157.427C159.146 13.9982 160.484 14.0907 161.402 14.2755C162.308 14.4472 163.095 14.817 163.764 15.3452C164.433 15.8735 164.945 16.5734 165.312 17.4053C165.679 18.2505 165.863 19.1881 165.863 20.1786C165.863 21.1822 165.706 22.067 165.404 22.8329C165.102 23.5857 164.643 24.2327 164.066 24.761C163.488 25.276 162.793 25.6326 162.006 25.8174C161.205 26.0023 159.893 26.0948 158.122 26.0948H156.705V13.9982H156.692Z" fill="#EEEEEE"/>
<path d="M183.208 22.3972C183.169 20.2975 182.552 18.6203 181.385 17.4054C180.217 16.1904 178.747 15.5698 177.016 15.5698C175.284 15.5698 173.801 16.2168 172.634 17.511C171.466 18.792 170.875 20.3503 170.875 22.1463C170.875 23.9423 171.466 25.5005 172.634 26.7683C173.801 28.0493 175.297 28.6964 177.094 28.6964C178.393 28.6964 179.522 28.3794 180.453 27.7455C181.385 27.1249 182.198 26.1476 182.88 24.8403L182.972 24.6686L181.135 23.6913L181.043 23.863C180.099 25.7118 178.761 26.5966 176.963 26.5966C175.927 26.5966 175.035 26.2137 174.287 25.4477C173.578 24.7346 173.171 23.7706 173.067 22.5953H183.221L183.208 22.3972ZM177.029 17.7355C177.96 17.7355 178.787 18.0128 179.508 18.5543C180.164 19.0561 180.597 19.7428 180.82 20.6012H173.342C173.985 18.6731 175.192 17.7355 177.029 17.7355Z" fill="#EEEEEE"/>
<path d="M194.662 15.8735L191.119 24.2592L187.564 15.8735H185.294L190.791 28.6963H191.473L196.931 15.8735H194.662Z" fill="#EEEEEE"/>
</svg>
